<svg xmlns="http://www.w3.org/2000/svg" width="121.598" height="41.33" viewBox="0 0 121.598 41.33"><defs><style>.a{fill:#fff;}.b{fill:#a70050;}.c{fill:#272d5b;}.d{fill:#93003f;}.e{fill:#3c467e;}</style></defs><g transform="translate(40.711 10.842)"><path class="a" d="M285.835,723.829a6.937,6.937,0,0,1-1.784,4.8,6.3,6.3,0,0,1-4.638,1.632,5.84,5.84,0,0,1-4.822-2.071,9.17,9.17,0,0,1-1.677-5.906v-3.122a8.934,8.934,0,0,1,1.734-5.892,6.855,6.855,0,0,1,9.423-.377,7.711,7.711,0,0,1,1.789,4.868H282.1a5,5,0,0,0-.6-2.707,2.387,2.387,0,0,0-2.033-.746,2.274,2.274,0,0,0-2.128,1.052,7.349,7.349,0,0,0-.663,3.46v3.5a8.079,8.079,0,0,0,.619,3.8,2.269,2.269,0,0,0,2.121,1.031,2.451,2.451,0,0,0,2.039-.719,4.734,4.734,0,0,0,.637-2.606Z" transform="translate(-272.914 -711.202)"/><path class="a" d="M297.273,722.336a9.368,9.368,0,0,1-.739,3.842,5.881,5.881,0,0,1-2.1,2.574,5.443,5.443,0,0,1-3.1.911,5.563,5.563,0,0,1-3.1-.892A5.84,5.84,0,0,1,286.1,726.2a9.317,9.317,0,0,1-.758-3.862v-.573a9.436,9.436,0,0,1,.745-3.867,5.858,5.858,0,0,1,2.11-2.58,5.49,5.49,0,0,1,3.108-.906,5.315,5.315,0,0,1,4.179,1.855,7.785,7.785,0,0,1,1.771,4.95Zm-3.606-.6a6.831,6.831,0,0,0-.619-3.23,1.919,1.919,0,0,0-3.5,0,7.02,7.02,0,0,0-.6,3.23v.586a6.753,6.753,0,0,0,.63,3.244,1.938,1.938,0,0,0,1.752,1.127,1.884,1.884,0,0,0,1.7-1.14,6.8,6.8,0,0,0,.631-3.167Z" transform="translate(-270.781 -710.652)"/><path class="a" d="M297.527,729.972V711.42h4.905a6.751,6.751,0,0,1,5.18,2.064,8.091,8.091,0,0,1,1.969,5.657v3.006a8.119,8.119,0,0,1-1.932,5.741,6.894,6.894,0,0,1-5.319,2.083Zm3.746-15.431v12.323h1.121a3.146,3.146,0,0,0,2.638-.989,5.878,5.878,0,0,0,.8-3.408v-3.223a6.584,6.584,0,0,0-.726-3.626,2.931,2.931,0,0,0-2.471-1.077Z" transform="translate(-268.691 -711.165)"/><path class="a" d="M318.286,723.262h-4.842v3.2H319.2v2.969h-9.364V714.584h9.377v3.007h-5.772v2.677h4.842Z" transform="translate(-266.578 -710.622)"/><path class="a" d="M328.561,726.175h-5.109l-.993,3.8h-3.963l5.8-18.552h3.427l5.837,18.552h-4Zm-4.294-3.121h3.466L326,716.44Z" transform="translate(-265.093 -711.165)"/><path class="a" d="M337.463,724.32h-1.286v5.109h-3.618V714.584h5.376a5.7,5.7,0,0,1,3.817,1.16,4.1,4.1,0,0,1,1.357,3.3,5.655,5.655,0,0,1-.524,2.581,4.032,4.032,0,0,1-1.732,1.687l2.713,5.963v.153h-3.886Zm-1.286-2.995h1.7q1.631,0,1.631-1.873,0-1.847-1.555-1.86h-1.771Z" transform="translate(-262.68 -710.622)"/></g><path class="b" d="M246.706,743.127l18.649-16.512-5.028-24.667-11.846,10.488,7.972,13.808Z" transform="translate(-236.7 -701.948)"/><path class="c" d="M249.946,711.383l-1.9-3.3-9.876,17.106,9.783,16.945-5.005-24.553Z" transform="translate(-238.166 -700.895)"/><path class="d" d="M257.218,724.708,249.246,710.9l-7,6.2,5.005,24.553.051.089.171-.151Z" transform="translate(-237.466 -700.412)"/><path class="e" d="M257.218,724.708,249.246,710.9l-7,6.2,5.005,24.553.051.089.171-.151Z" transform="translate(-237.466 -700.412)"/></svg>