<svg xmlns="http://www.w3.org/2000/svg" width="319.046" height="60.969" viewBox="0 0 319.046 60.969"><defs><style>.a{fill:#fff;}</style></defs><path class="a" d="M314.279,10.8a4.26,4.26,0,0,0,2.436-4.449c-.318-2.86-2.33-4.343-5.932-4.131l-1.907.106-.106,4.237a39.224,39.224,0,0,0,.106,4.555C309.089,11.649,312.8,11.543,314.279,10.8Zm-7.2,2.013c-.106-.212-.106-3.072-.106-6.461l.106-6.038h3.5c3.072,0,3.6.106,4.767.741a6.4,6.4,0,0,1,.106,11.016c-1.271.741-1.8.847-4.767.953C307.924,13.238,307.182,13.132,307.076,12.814ZM299.767,7.2c.212-.318-1.483-3.919-1.8-3.919a12.164,12.164,0,0,0-1.589,3.707c0,.424.318.53,1.589.53A3.607,3.607,0,0,0,299.767,7.2Zm-7.733,5.72c-.212-.318,4.767-11.97,5.4-12.605.318-.318.53-.318.953-.106C299.026.633,304.216,12.5,304,12.92a1.211,1.211,0,0,1-.741.318c-.424,0-.847-.53-1.483-1.907l-.953-2.013h-5.72l-.847,1.907c-.636,1.483-1.059,1.907-1.483,1.907A1.234,1.234,0,0,1,292.035,12.92Zm-8.156-.106a42.52,42.52,0,0,1-.212-5.508l-.106-5.084-2.118-.106c-2.013-.106-2.119-.212-2.119-.953V.421H289.81v.741c0,.741-.106.741-2.118.953l-2.118.106-.106,5.4c-.106,5.3-.212,5.4-.847,5.508C284.408,13.132,283.984,13.026,283.879,12.814Zm-13.77,0C270,12.6,270,9.743,270,6.459l.106-6.038h1.483l.106,5.4.106,5.4,2.86.106c2.754.106,2.86.212,2.86.953v.741l-3.707.106C271.062,13.132,270.214,13.132,270.108,12.814ZM233.458,7.2c.212-.318-1.483-3.919-1.8-3.919a12.164,12.164,0,0,0-1.589,3.707c0,.424.318.53,1.589.53A4.424,4.424,0,0,0,233.458,7.2Zm-7.733,5.72c-.212-.318,4.767-11.97,5.4-12.605.318-.318.53-.318.953-.106.636.424,5.826,12.287,5.614,12.711a1.211,1.211,0,0,1-.741.318c-.424,0-.847-.53-1.483-1.907l-.847-1.907H228.8l-.847,1.907c-.636,1.483-1.059,1.907-1.483,1.907C226.15,13.132,225.726,13.026,225.726,12.92Zm-9.11-.106c-.106-.212-.106-3.072-.106-6.355l.106-6.038h6.567v.741c0,.741-.106.741-2.436.953l-2.436.106V5.188l2.436.106c2.33.106,2.436.212,2.436.847,0,.741-.106.741-2.436.953l-2.436.106-.106,2.86c-.106,2.648-.212,2.86-.847,2.966A.655.655,0,0,1,216.616,12.814Zm41.734.212c-2.648-.953-3.178-2.648-3.072-8.474l.106-4.131h1.483l.106,4.661a25.726,25.726,0,0,0,.424,5.084,3.923,3.923,0,0,0,6.144,0,39.653,39.653,0,0,0,.424-5.084l.106-4.661h1.483V5.188c0,4.343-.106,4.873-.636,5.826C263.859,13.026,260.893,13.98,258.351,13.026Zm-13.982,0c-2.754-.847-4.767-4.343-4.343-7.309a7.025,7.025,0,0,1,8.58-5.508c2.013.424,2.966.953,2.966,1.589,0,.847-.424.953-1.8.424-2.754-.953-5.826-.212-7.2,1.695-.953,1.377-1.059,4.343-.106,5.508,1.589,2.224,4.343,2.754,7.2,1.695,1.695-.636,1.907-.636,1.907.318C251.677,12.814,247.017,13.874,244.369,13.026Zm63.555,15.359c-.106-.212-.106-3.072-.106-6.355l.106-6.038h1.483l.318,10.8,2.86.106c2.754.106,2.86.212,2.86.847V28.6l-3.707.106C308.983,28.809,308.029,28.7,307.924,28.385Zm-7.2-5.614c.212-.318-1.483-3.919-1.8-3.919a12.163,12.163,0,0,0-1.589,3.707c0,.424.318.53,1.589.53C299.767,23.089,300.615,22.983,300.721,22.771Zm-7.838,5.72c-.212-.318,4.767-11.97,5.4-12.605.318-.318.53-.318.953-.106.636.424,5.826,12.287,5.614,12.711a1.211,1.211,0,0,1-.741.318c-.424,0-.847-.53-1.483-1.907L301.78,25h-5.72l-.847,1.907c-.636,1.483-1.059,1.907-1.483,1.907C293.412,28.809,292.988,28.7,292.882,28.491Zm-14.724-.106c-.106-.212-.106-3.072-.106-6.355.106-7.944,0-7.838,5.19-1.483a37.995,37.995,0,0,0,4.237,4.661c.318,0,.424-1.165.424-4.555l.106-4.555h1.483V28.6h-.741c-.636,0-1.483-.953-4.555-4.449a48.26,48.26,0,0,0-4.131-4.555c-.212-.106-.424,1.059-.424,4.449-.106,4.555-.106,4.555-.741,4.661A.582.582,0,0,1,278.159,28.385Zm-22.774,0c-.106-.212-.106-3.072-.106-6.355l.106-6.038h1.483V28.6l-.636.106C255.808,28.809,255.491,28.7,255.385,28.385Zm-26.163,0c-.106-.212-.106-3.072-.106-6.355l.106-6.038h6.885v.741c0,.741-.106.741-2.542.953l-2.542.106v3.6l2.542.106c2.436.106,2.542.212,2.542.953s-.106.741-2.542.953l-2.542.106V26.8l2.754.106c2.648.106,2.754.212,2.754.847V28.6l-3.5.106C230.281,28.809,229.327,28.7,229.221,28.385Zm-7.627-7.733c1.377-1.377.212-3.072-1.907-2.966-1.271.106-1.271.106-1.377,1.377a6.589,6.589,0,0,0,.106,1.695C218.629,21.5,220.853,21.394,221.595,20.653Zm-4.978,7.733c-.106-.212-.106-3.072-.106-6.355l.106-6.038h2.436c2.013,0,2.648.106,3.284.636a3.252,3.252,0,0,1,.53,5.084l-.741.847,1.8,2.648a20.968,20.968,0,0,1,1.8,3.072c0,.212-.318.424-.741.424-.53,0-1.059-.53-2.224-2.436-1.589-2.542-2.648-3.39-3.707-3.284-.636.106-.741.212-.847,2.754s-.212,2.754-.847,2.754A.411.411,0,0,1,216.616,28.385Zm54.128-2.118c2.754-2.013,2.542-6.038-.318-8.156-1.165-.847-4.555-.847-5.72,0-3.178,2.33-2.86,7.2.636,8.686A6.105,6.105,0,0,0,270.744,26.267Zm-5.19,2.542a5.506,5.506,0,0,1-3.284-2.118,6.775,6.775,0,0,1-1.589-5.3,5.6,5.6,0,0,1,2.33-4.237,6.882,6.882,0,0,1,10.381,1.695,5.008,5.008,0,0,1,.847,3.39c0,2.542-.424,3.6-2.224,5.084A6.981,6.981,0,0,1,265.554,28.809ZM243.839,28.6a6.9,6.9,0,0,1-4.449-6.144,6.928,6.928,0,0,1,5.19-6.673,5.771,5.771,0,0,1,3.284,0c1.8.424,2.86,1.059,2.86,1.695s-.424.741-1.8.212c-1.8-.636-4.555-.424-5.614.424a4.248,4.248,0,0,0-2.013,4.131,4.248,4.248,0,0,0,2.013,4.131c.953.741,3.813.953,5.084.53.741-.318.847-.424.741-1.483s-.212-1.165-1.165-1.271c-.847-.106-1.059-.318-1.059-.847,0-.741.106-.741,1.907-.741h1.907v5.4l-1.165.424A9.65,9.65,0,0,1,243.839,28.6Zm-6.673,1.8c-.424-.424.953-2.542,1.589-2.542.847,0,.741.53-.212,1.695C237.8,30.61,237.483,30.716,237.166,30.4ZM206.13,43.427c-.106-.212-.106-9.957-.106-21.715L206.13.421H209.1V43.639l-1.377.106Q206.289,43.9,206.13,43.427Zm-52.539,0c-.106-.212-.106-9.957-.106-21.715L153.591.421l4.767-.106,4.767-.106,11.652,13.029c6.461,7.2,11.758,12.923,11.969,12.817.106-.106.318-6.038.318-13.029L187.169.315h10.487V43.533l-8.474.212L177,30.08c-6.673-7.521-12.393-13.664-12.5-13.664-.212,0-.318,5.3-.318,13.558l-.106,13.558-5.19.106C154.968,43.85,153.7,43.745,153.591,43.427Zm-31.777,0c-.106-.212-.212-8.156-.212-17.689L121.5,8.472l-7.838-.106-7.838-.106V.421h42.37V8.26l-7.838.106-7.838.106-.106,17.584L132.3,43.639l-5.19.106C123.085,43.85,121.919,43.745,121.814,43.427Zm189.394-4.978c.212-.318-1.483-3.919-1.8-3.919a12.163,12.163,0,0,0-1.589,3.707c0,.424.318.53,1.589.53A6.716,6.716,0,0,0,311.207,38.448Zm-7.733,5.72c-.212-.318,4.767-11.97,5.4-12.605.318-.318.53-.318.953-.106.636.424,5.826,12.287,5.614,12.711a1.211,1.211,0,0,1-.741.318c-.424,0-.847-.53-1.483-1.907l-.847-1.907h-5.72l-.847,1.907c-.636,1.483-1.059,1.907-1.483,1.907A2.322,2.322,0,0,1,303.475,44.168Zm-5.932-7.838c1.377-1.377.318-3.072-1.695-2.966-1.165.106-1.165.106-1.271,1.377a6.586,6.586,0,0,0,.106,1.695C294.895,37.177,296.907,36.965,297.543,36.33Zm.953,5.72a1.894,1.894,0,0,0-.106-2.754c-.53-.53-.953-.636-2.224-.53l-1.483.106-.106,1.483c-.106,2.118,0,2.33,1.695,2.33C297.437,42.579,298.072,42.473,298.5,42.05Zm-5.614,2.013c-.106-.212-.106-3.072-.106-6.355l.106-6.038,1.695-.106c2.436-.106,4.025.318,4.767,1.483a3.037,3.037,0,0,1-.318,3.707l-.636.636.847.636a3.363,3.363,0,0,1-.953,6.038C297.119,44.592,293.094,44.486,292.882,44.062ZM268.1,41.944a4.26,4.26,0,0,0,2.436-4.449c-.318-2.86-2.33-4.343-5.932-4.131l-1.907.106-.106,4.237a39.224,39.224,0,0,0,.106,4.555C262.8,42.9,266.507,42.685,268.1,41.944Zm-7.309,2.118c-.106-.212-.106-3.072-.106-6.461l.106-6.038h3.5c3.072,0,3.6.106,4.767.741a6.4,6.4,0,0,1,.106,11.016c-1.271.741-1.8.847-4.767.953C261.634,44.486,260.893,44.38,260.787,44.062ZM253.16,36.33c1.377-1.377.212-3.072-1.907-2.966-1.271.106-1.271.106-1.377,1.377a6.588,6.588,0,0,0,.106,1.695C250.194,37.177,252.419,37.071,253.16,36.33Zm-4.978,7.733c-.106-.212-.106-3.072-.106-6.355l.106-6.038h2.436c2.013,0,2.648.106,3.284.636a3.252,3.252,0,0,1,.53,5.084l-.742.847,1.8,2.648a20.969,20.969,0,0,1,1.8,3.072c0,.212-.318.424-.741.424-.53,0-1.059-.53-2.224-2.436-1.589-2.542-2.648-3.39-3.707-3.284-.636.106-.741.212-.847,2.754s-.212,2.754-.847,2.754A.494.494,0,0,1,248.182,44.062Zm-172.975,0c-7.309-.847-13.029-4.343-15.571-9.745-1.8-3.6-1.8-4.131-1.8-19.7V.421H68.322L68.427,14.4l.106,13.982.741,1.483a10.171,10.171,0,0,0,4.767,4.661c1.483.741,2.118.741,5.19.847,3.178,0,3.6-.106,5.3-.847a10.588,10.588,0,0,0,4.978-4.873c.636-1.483.741-1.695.847-15.359L90.46.527h10.487v14.3c0,15.783,0,15.995-2.013,20.126C95.65,41.838,86.647,45.333,75.207,44.062Zm210.155-2.224c2.754-2.013,2.542-6.038-.318-8.156-1.165-.847-4.555-.847-5.72,0-3.178,2.33-2.86,7.2.636,8.686A5.453,5.453,0,0,0,285.362,41.838Zm-5.084,2.648a5.506,5.506,0,0,1-3.284-2.118,6.775,6.775,0,0,1-1.589-5.3,5.6,5.6,0,0,1,2.33-4.237,6.882,6.882,0,0,1,10.381,1.695c.741,1.059.847,1.483.847,3.39,0,2.542-.424,3.6-2.224,5.084A7.279,7.279,0,0,1,280.277,44.486Zm-39.616-2.648a5.067,5.067,0,0,0-.318-8.156c-1.165-.847-4.555-.847-5.826,0-3.178,2.33-2.86,7.2.636,8.686A5.653,5.653,0,0,0,240.661,41.838Zm-5.084,2.648a5.506,5.506,0,0,1-3.284-2.118,6.775,6.775,0,0,1-1.589-5.3,5.6,5.6,0,0,1,2.33-4.237,6.882,6.882,0,0,1,10.381,1.695,5.008,5.008,0,0,1,.847,3.39c0,2.542-.424,3.6-2.224,5.084A7.433,7.433,0,0,1,235.577,44.486Zm-15.253-.212c-2.754-.847-4.767-4.343-4.343-7.309a7.025,7.025,0,0,1,8.58-5.508c2.013.424,2.966.953,2.966,1.589,0,.847-.424.953-1.8.424-2.754-.953-5.826-.212-7.2,1.695-.953,1.377-1.059,4.343-.106,5.508,1.589,2.224,4.343,2.754,7.2,1.695,1.695-.636,1.907-.636,1.907.318C227.632,44.062,222.972,45.122,220.324,44.274ZM303.9,49.359c.318-.741,1.165-1.271,1.165-.741,0,.636-.636,1.483-1.059,1.483C303.687,50.1,303.687,49.994,303.9,49.359Zm-186.745,0c.318-.741,1.165-1.271,1.165-.741,0,.636-.636,1.483-1.059,1.483C116.941,50.1,116.941,49.994,117.153,49.359ZM.106,59.21c-.318-.847.741-6.25,1.695-8.792A24.5,24.5,0,0,1,16.524,36.33a7.792,7.792,0,0,0,2.436-1.059c0-.106-4.237-.318-9.427-.424L.106,34.741,0,30.186V25.525H9.11c4.978,0,9.321-.106,9.639-.318.318-.106.53-.318.424-.318s-1.271-.424-2.542-.847A21.533,21.533,0,0,1,7.2,18a16.625,16.625,0,0,1-4.237-5.72A24.963,24.963,0,0,1,.318,2.752L.212.739H9.533L9.745,1.9c.847,3.919,1.271,5.19,2.754,7.309a12.059,12.059,0,0,0,3.6,3.707,8,8,0,0,0,2.86,1.483l.741.106L20.02.739h9.639V7.518l.106,6.885h.741a8,8,0,0,0,2.86-1.483A15.1,15.1,0,0,0,39.722,2.434L39.934.739h9.639l-.106,1.483A24.3,24.3,0,0,1,33.26,23.831c-1.271.424-2.436.847-2.648.953-1.377.424,1.059.53,9.533.741l9.533.106v9l-9.533.106c-5.3.106-9.533.318-9.639.424a7.972,7.972,0,0,0,2.33,1.059A24.363,24.363,0,0,1,48.408,52.007c.636,1.907,1.377,7.1,1.059,7.415a32.286,32.286,0,0,1-4.873.212l-4.661-.106-.212-1.695a15.306,15.306,0,0,0-7.944-11.546c-1.907-.953-1.907-1.165-1.907,6.25v6.779H19.914V52.536c0-4.025-.106-6.779-.318-6.885a3.1,3.1,0,0,0-1.589.424c-4.661,2.33-6.885,5.614-8.262,12.181l-.212,1.165-4.555.106C.847,59.739.318,59.633.106,59.21Zm310.572,1.377a45.368,45.368,0,0,1-.106-4.873c.106-4.237.106-4.449.636-4.449q.636,0,3.178,3.178a14.587,14.587,0,0,0,2.966,3.178c.212,0,.424-.953.424-3.178.106-2.966.106-3.178.636-3.178s.636.212.636,4.661c0,2.542,0,4.767-.212,4.873-.53.53-1.483-.212-3.919-3.284a33.874,33.874,0,0,0-2.754-3.178,10.555,10.555,0,0,0-.318,3.178c-.106,2.754-.106,3.284-.636,3.284C311,60.9,310.678,60.8,310.678,60.587Zm-4.025-2.013a2.758,2.758,0,0,0,1.165-2.542,2.582,2.582,0,0,0-1.165-2.542,2.836,2.836,0,0,0-2.436-1.165,3.676,3.676,0,0,0-3.919,3.707,3.587,3.587,0,0,0,3.813,3.707C305.275,59.739,305.593,59.527,306.652,58.574Zm-4.343,2.013a4.729,4.729,0,0,1-2.966-2.542,4.313,4.313,0,0,1,0-4.237,5.234,5.234,0,0,1,8.474-1.059,4.414,4.414,0,0,1,0,6.355A5.071,5.071,0,0,1,302.309,60.587Zm-5.826,0a45.368,45.368,0,0,1-.106-4.873c.106-4.237.106-4.449.636-4.449s.636.212.636,4.767c0,4.343-.106,4.767-.53,4.873A.755.755,0,0,1,296.484,60.587Zm-6.673,0a5.135,5.135,0,0,1-3.284-5.508,5.862,5.862,0,0,1,3.6-3.813,5.979,5.979,0,0,1,4.343.53c.953.636.424,1.059-.847.636a5.482,5.482,0,0,0-2.33-.212,3.741,3.741,0,0,0-2.86,5.614c1.059,1.695,2.648,2.118,5.826,1.271,1.271-.318.953.424-.424,1.059A4.8,4.8,0,0,1,289.81,60.587Zm-6.885-4.131c.106-.212-.847-2.754-1.165-2.754s-1.059,1.8-1.059,2.436c0,.53.212.636,1.059.636C282.4,56.773,282.925,56.667,282.925,56.455Zm-5.3,4.131c-.212-.318,2.966-8.686,3.6-9.321.318-.318.53-.318.953-.106.53.318,4.025,8.686,3.813,9.321,0,.212-.318.318-.636.318s-.741-.424-1.059-1.377l-.53-1.377h-3.813l-.636,1.377C278.688,60.8,278.053,61.328,277.629,60.587Zm-9.639,0a45.368,45.368,0,0,1-.106-4.873c.106-4.343.106-4.449.741-4.555.53-.106.953.318,1.907,1.589a9.568,9.568,0,0,0,1.695,1.8c.212.106.953-.636,1.695-1.695,1.059-1.377,1.589-1.8,2.013-1.695.636.106.636.212.636,4.873,0,4.555,0,4.767-.636,4.767-.53,0-.636-.212-.636-3.39-.106-3.813-.318-4.131-1.695-2.013-.53.741-1.059,1.377-1.271,1.377s-.741-.636-1.377-1.377c-1.589-2.118-1.8-1.907-1.907,2.013-.106,2.966-.106,3.39-.636,3.5A.827.827,0,0,1,267.99,60.587Zm-4.343-5.614a1.6,1.6,0,0,0-1.271-2.754c-.53.106-.741.318-.847,1.271a3.446,3.446,0,0,0,.106,1.589C261.846,55.714,263.011,55.608,263.647,54.973Zm-3.5,5.614a45.368,45.368,0,0,1-.106-4.873l.106-4.449,1.165-.106c1.8-.106,3.39.424,3.919,1.483a2.207,2.207,0,0,1-.106,2.754,4.363,4.363,0,0,0-.636,1.059,9.171,9.171,0,0,0,1.165,2.013c1.271,1.8,1.483,2.542.847,2.542-.424,0-1.271-.847-2.436-2.648-.847-1.271-1.8-1.907-2.33-1.377A5.364,5.364,0,0,0,261.423,59c-.106,1.483-.212,1.8-.636,1.907A.755.755,0,0,1,260.151,60.587Zm-4.025-2.013a2.758,2.758,0,0,0,1.165-2.542,2.582,2.582,0,0,0-1.165-2.542,2.836,2.836,0,0,0-2.436-1.165,3.676,3.676,0,0,0-3.919,3.707,3.587,3.587,0,0,0,3.813,3.707A2.8,2.8,0,0,0,256.126,58.574ZM243.1,60.587a45.368,45.368,0,0,1-.106-4.873l.106-4.449h2.436c1.907,0,2.436.106,2.436.424s-.424.53-1.695.636l-1.695.106-.106,1.165c-.106,1.271,0,1.271,2.224,1.483l1.589.106.636-1.271a5.234,5.234,0,0,1,8.474-1.059,4.379,4.379,0,0,1-.424,6.673A5.256,5.256,0,0,1,248.5,57.3l-.318-1.165-1.8.106-1.8.106-.106,2.224c-.106,1.8-.212,2.224-.636,2.33C243.415,60.9,243.2,60.8,243.1,60.587Zm-10.592,0a45.355,45.355,0,0,1-.106-4.873c.106-4.237.106-4.449.636-4.449q.636,0,3.178,3.178a14.586,14.586,0,0,0,2.966,3.178c.212,0,.424-.953.424-3.178.106-2.966.106-3.178.636-3.178s.636.212.636,4.661c0,2.542,0,4.767-.212,4.873-.53.53-1.483-.212-3.919-3.284a33.882,33.882,0,0,0-2.754-3.178,10.553,10.553,0,0,0-.318,3.178c-.106,2.754-.106,3.284-.636,3.284C232.929,60.9,232.611,60.8,232.505,60.587Zm-2.966,0a45.368,45.368,0,0,1-.106-4.873c.106-4.237.106-4.449.636-4.449s.636.212.636,4.767c0,4.343,0,4.767-.53,4.873A.755.755,0,0,1,229.539,60.587Zm-9.851,0a45.355,45.355,0,0,1-.106-4.873l.106-4.449h2.754c2.224,0,2.754.106,2.754.424s-.53.53-1.907.636l-1.907.106v2.648l1.8.106c1.377.106,1.8.318,1.8.636s-.424.53-1.8.636l-1.8.106v2.966l1.907.106c1.483.106,1.907.318,1.907.636C225.09,60.9,219.9,61.116,219.688,60.587Zm-4.661-1.271c2.436-1.271,2.33-5.4,0-6.567a5.1,5.1,0,0,0-2.33-.424l-1.377.106-.106,3.284a27.237,27.237,0,0,0,.106,3.707C211.426,59.845,213.862,59.845,215.027,59.315Zm-5.3,1.271a45.361,45.361,0,0,1-.106-4.873l.106-4.449h2.542c3.178,0,4.343.53,5.3,2.542a4.4,4.4,0,0,1,0,4.555c-.953,1.907-2.648,2.648-5.508,2.648C210.579,60.9,209.837,60.8,209.731,60.587Zm-9.11-.106c-.636-.318-.953-.636-.953-1.059,0-.318.106-.636.212-.53a9.446,9.446,0,0,0,1.059.53c1.165.53,2.33.212,2.542-.741.212-.636,0-.953-.741-1.589-2.224-1.8-3.072-2.648-3.072-3.39,0-1.8,2.33-3.072,4.131-2.224,1.483.741,1.271,1.165-.424.953-1.165-.106-1.589-.106-1.907.318-.636.741-.318,1.483,1.271,2.648,1.8,1.377,2.33,2.33,2.118,3.5C204.541,60.587,202.528,61.328,200.622,60.481Zm-4.449-4.025c.106-.212-.847-2.754-1.165-2.754s-1.059,1.8-1.059,2.436c0,.53.212.636,1.059.636C195.537,56.773,196.067,56.667,196.173,56.455Zm-5.3,4.131c-.212-.318,2.966-8.686,3.6-9.321.318-.318.53-.318.953-.106.636.424,4.025,8.792,3.813,9.321-.318.741-1.165.212-1.695-1.165l-.53-1.377h-3.813l-.636,1.377C191.936,60.8,191.194,61.328,190.877,60.587Zm-9.639,0a45.361,45.361,0,0,1-.106-4.873c.106-4.343.106-4.449.741-4.555.53-.106.953.318,1.907,1.589a9.567,9.567,0,0,0,1.695,1.8c.212.106.953-.636,1.695-1.695,1.059-1.377,1.589-1.8,2.013-1.695.636.106.636.212.636,4.873,0,4.555,0,4.767-.636,4.767-.53,0-.636-.212-.636-3.39-.106-3.813-.318-4.131-1.695-2.013-.53.741-1.059,1.377-1.271,1.377s-.741-.636-1.377-1.377c-1.589-2.118-1.8-1.907-1.907,2.013-.106,2.966-.106,3.39-.636,3.5A.568.568,0,0,1,181.237,60.587Zm-6.673,0a45.368,45.368,0,0,1-.106-4.873l.106-4.449h2.754c2.224,0,2.754.106,2.754.424s-.53.53-1.907.636l-1.907.106v2.648l1.8.106c1.377.106,1.8.318,1.8.636s-.424.53-1.8.636l-1.8.106v2.966l1.907.106c1.483.106,1.907.318,1.907.636C179.966,60.9,174.882,61.116,174.564,60.587Zm-5.3,0a27.262,27.262,0,0,1-.212-4.343l-.106-3.919-1.483-.106c-1.059-.106-1.483-.318-1.483-.636,0-.424.636-.424,3.919-.424s3.919.106,3.919.424-.424.53-1.483.636l-1.483.106-.106,4.237c-.106,3.707-.212,4.237-.636,4.343C169.586,60.9,169.268,60.8,169.268,60.587Zm-8.05,0c-.741-.318-1.377-1.271-1.059-1.695.106-.106.53.106,1.059.424,1.165.636,2.436.318,2.648-.741.212-.636,0-.953-.741-1.589-2.224-1.8-3.072-2.648-3.072-3.39,0-1.8,2.33-3.072,4.131-2.224,1.483.741,1.271,1.165-.424.953-1.165-.106-1.589-.106-1.907.318-.636.741-.318,1.483,1.271,2.648a7.924,7.924,0,0,1,1.907,1.907,2.559,2.559,0,0,1-.53,2.966A3.5,3.5,0,0,1,161.218,60.587Zm-3.39,0a45.368,45.368,0,0,1-.106-4.873c.106-4.237.106-4.449.636-4.449s.636.212.636,4.767c0,4.343-.106,4.767-.53,4.873C158.146,60.9,157.828,60.8,157.828,60.587Zm-5.614,0c-.741-.318-1.377-1.271-1.059-1.695.106-.106.53.106,1.059.424,1.165.636,2.436.318,2.648-.741.212-.636,0-.953-.741-1.589-2.224-1.8-3.072-2.648-3.072-3.39,0-1.8,2.33-3.072,4.131-2.224,1.483.741,1.271,1.165-.424.953-1.165-.106-1.589-.106-1.907.318-.636.741-.318,1.483,1.271,2.648a7.924,7.924,0,0,1,1.907,1.907,2.559,2.559,0,0,1-.53,2.966A3.5,3.5,0,0,1,152.214,60.587Zm-14.194,0a45.368,45.368,0,0,1-.106-4.873c.106-4.237.106-4.449.636-4.449q.636,0,3.178,3.178a14.587,14.587,0,0,0,2.966,3.178c.212,0,.424-.953.424-3.178.106-2.966.106-3.178.636-3.178s.636.212.636,4.661c0,2.542,0,4.767-.212,4.873-.53.53-1.483-.212-3.919-3.284a33.88,33.88,0,0,0-2.754-3.178,10.555,10.555,0,0,0-.318,3.178c-.106,2.754-.106,3.284-.636,3.284C138.338,60.9,138.02,60.8,138.02,60.587Zm-6.673,0a45.368,45.368,0,0,1-.106-4.873l.106-4.449H134.1c2.224,0,2.754.106,2.754.424s-.53.53-1.907.636l-1.907.106v2.648l1.8.106c1.377.106,1.8.318,1.8.636s-.424.53-1.8.636l-1.8.106v2.966l1.907.106c1.483.106,1.907.318,1.907.636C136.749,60.9,131.559,61.116,131.347,60.587Zm-7.521-4.131c.106-.212-.847-2.754-1.165-2.754s-1.059,1.8-1.059,2.436c0,.53.212.636,1.059.636C123.191,56.773,123.72,56.667,123.826,56.455Zm-5.4,4.131c-.212-.318,2.966-8.686,3.6-9.321.318-.318.53-.318.953-.106.53.318,4.025,8.686,3.813,9.321,0,.212-.318.318-.636.318s-.741-.424-1.059-1.377l-.53-1.377h-3.813l-.636,1.377C119.589,60.8,118.848,61.328,118.424,60.587Zm-2.118,0a45.371,45.371,0,0,1-.106-4.873c.106-4.237.106-4.449.636-4.449s.636.212.636,4.767c0,4.343,0,4.767-.53,4.873A.755.755,0,0,1,116.305,60.587Zm-4.237-5.614a1.6,1.6,0,0,0-1.271-2.754c-.53.106-.741.318-.847,1.271a6.1,6.1,0,0,0,.106,1.589C110.268,55.714,111.433,55.608,112.068,54.973Zm-3.5,5.614a45.368,45.368,0,0,1-.106-4.873l.106-4.449,1.165-.106c1.8-.106,3.39.424,3.919,1.483a2.207,2.207,0,0,1-.106,2.754,4.363,4.363,0,0,0-.636,1.059,9.171,9.171,0,0,0,1.165,2.013c1.271,1.8,1.483,2.542.847,2.542-.424,0-1.271-.847-2.436-2.648-.847-1.271-1.8-1.907-2.33-1.377A5.364,5.364,0,0,0,109.844,59c-.106,1.483-.212,1.8-.636,1.907A.755.755,0,0,1,108.573,60.587Zm-6.673,0a45.368,45.368,0,0,1-.106-4.873l.106-4.449h2.754c2.224,0,2.754.106,2.754.424s-.53.53-1.907.636l-1.907.106v2.648l1.8.106c1.377.106,1.8.318,1.8.636s-.424.53-1.8.636l-1.8.106v2.966l1.907.106c1.483.106,1.907.318,1.907.636C107.408,60.9,102.217,61.116,101.9,60.587Zm-2.966,0a45.371,45.371,0,0,1-.106-4.873c.106-4.237.106-4.449.636-4.449s.636.212.636,4.767c0,4.343-.106,4.767-.53,4.873A.755.755,0,0,1,98.934,60.587Zm-10.487,0a45.368,45.368,0,0,1-.106-4.873c.106-4.237.106-4.449.636-4.449q.636,0,3.178,3.178a14.587,14.587,0,0,0,2.966,3.178c.212,0,.424-.953.424-3.178.106-2.966.106-3.178.636-3.178s.636.212.636,4.661c0,2.542,0,4.767-.212,4.873-.53.53-1.483-.212-3.919-3.284a33.884,33.884,0,0,0-2.754-3.178,10.554,10.554,0,0,0-.318,3.178c-.106,2.754-.106,3.284-.636,3.284C88.871,60.9,88.553,60.8,88.447,60.587Zm-6.673,0a45.371,45.371,0,0,1-.106-4.873l.106-4.449h2.754c2.224,0,2.754.106,2.754.424s-.53.53-1.907.636l-1.907.106v2.648l1.8.106c1.377.106,1.8.318,1.8.636s-.424.53-1.8.636l-1.8.106v2.966l1.907.106c1.483.106,1.907.318,1.907.636C87.282,60.9,82.092,61.116,81.774,60.587Zm-7.415-.106a5.329,5.329,0,0,1-1.589-.847,6.252,6.252,0,0,1-1.589-3.707,5.549,5.549,0,0,1,2.33-4.131,5.843,5.843,0,0,1,5.3-.106c1.059.636.636,1.271-.53.847a4.743,4.743,0,0,0-3.813.212,3.864,3.864,0,0,0,0,6.567c1.165.53,3.072.636,3.6,0a1.284,1.284,0,0,0-.636-2.013c-.424-.106-.741-.424-.741-.636,0-.318.424-.424,1.483-.424h1.483l.106,1.907c.106,1.589,0,1.907-.53,2.224A8.411,8.411,0,0,1,74.359,60.481Zm-12.923.106a45.369,45.369,0,0,1-.106-4.873c.106-4.237.106-4.449.636-4.449q.636,0,3.178,3.178a14.586,14.586,0,0,0,2.966,3.178c.212,0,.424-.953.424-3.178.106-2.966.106-3.178.636-3.178s.636.212.636,4.661c0,2.542,0,4.767-.212,4.873-.53.53-1.483-.212-3.919-3.284a33.883,33.883,0,0,0-2.754-3.178,10.555,10.555,0,0,0-.318,3.178C62.5,60.269,62.5,60.8,61.966,60.8A.387.387,0,0,1,61.436,60.587Zm-3.072,0a45.369,45.369,0,0,1-.106-4.873c.106-4.237.106-4.449.636-4.449s.636.212.636,4.767c0,4.343,0,4.767-.53,4.873A.755.755,0,0,1,58.365,60.587Z" transform="translate(0 -0.041)"/></svg>