<svg xmlns="http://www.w3.org/2000/svg" width="399.5" height="136.1" viewBox="0 0 399.5 136.1"><defs><style>.a{fill:#3c467e;}.b{fill:#a70050;}.c{fill:#c7c8ca;}.d{fill:#fff;}.e{fill:#5566af;}</style></defs><path class="a" d="M72.5,136.1l61.7-54.6L117.6,0,78.4,34.7l26.4,45.6Z"/><path class="a" d="M61.7,136.1,0,81.5,16.6,0,55.8,34.7,29.4,80.3Z"/><path class="b" d="M72.4,43.3l-5.2-9.1L39.7,81.7l27.5,47.5L94.6,81.7Z"/><path class="c" d="M351.9,119.9H338.2V117l6.3-7.3a15.735,15.735,0,0,0,1.8-2.7,4.867,4.867,0,0,0,.6-2.2,4.473,4.473,0,0,0-.5-2.2,1.9,1.9,0,0,0-1.5-.8,1.965,1.965,0,0,0-1.7.9,4.764,4.764,0,0,0-.6,2.6h-4.5a7.4,7.4,0,0,1,.9-3.6,6.025,6.025,0,0,1,2.5-2.5,7.4,7.4,0,0,1,3.6-.9,6.485,6.485,0,0,1,4.8,1.6,5.72,5.72,0,0,1,1.7,4.4,7.016,7.016,0,0,1-1,3.6,23.893,23.893,0,0,1-3.4,4.5l-3,3.9h7.9v3.6Z"/><path class="c" d="M367.4,111.2a11.406,11.406,0,0,1-1.7,6.7,6,6,0,0,1-5,2.3,6.129,6.129,0,0,1-5-2.3,10.265,10.265,0,0,1-1.8-6.5v-4a11.625,11.625,0,0,1,1.7-6.7,6.585,6.585,0,0,1,10,0,10.265,10.265,0,0,1,1.8,6.5Zm-4.5-4.3a10.879,10.879,0,0,0-.5-3.7,1.708,1.708,0,0,0-1.7-1.2c-1.4,0-2.2,1.5-2.2,4.6v5.3a9.08,9.08,0,0,0,.6,3.8,1.8,1.8,0,0,0,1.7,1.2,1.676,1.676,0,0,0,1.6-1.2,10.232,10.232,0,0,0,.6-3.6v-5.2Z"/><path class="c" d="M383.3,119.9H369.6V117l6.3-7.3a15.735,15.735,0,0,0,1.8-2.7,4.867,4.867,0,0,0,.6-2.2,4.473,4.473,0,0,0-.5-2.2,1.9,1.9,0,0,0-1.5-.8,1.965,1.965,0,0,0-1.7.9,4.764,4.764,0,0,0-.6,2.6h-4.5a7.4,7.4,0,0,1,.9-3.6,6.025,6.025,0,0,1,2.5-2.5,7.4,7.4,0,0,1,3.6-.9,6.485,6.485,0,0,1,4.8,1.6,5.72,5.72,0,0,1,1.7,4.4,7.016,7.016,0,0,1-1,3.6,23.893,23.893,0,0,1-3.4,4.5l-3,3.9h7.9v3.6Z"/><path class="c" d="M398.9,111.2a11.406,11.406,0,0,1-1.7,6.7,6,6,0,0,1-5,2.3,6.129,6.129,0,0,1-5-2.3,10.265,10.265,0,0,1-1.8-6.5v-4a11.625,11.625,0,0,1,1.7-6.7,6.585,6.585,0,0,1,10,0,10.265,10.265,0,0,1,1.8,6.5Zm-4.6-4.3a10.879,10.879,0,0,0-.5-3.7,1.708,1.708,0,0,0-1.7-1.2c-1.4,0-2.2,1.5-2.2,4.6v5.3a9.08,9.08,0,0,0,.6,3.8,1.8,1.8,0,0,0,1.7,1.2,1.676,1.676,0,0,0,1.6-1.2,10.232,10.232,0,0,0,.6-3.6v-5.2Z"/><path class="d" d="M190.8,71.6,195.3,42h9.4l-8.4,47.1h-9.5l-5.5-27.7-5.4,27.7h-9.6L157.9,42h9.5l4.4,29.6L177.3,42h8Z"/><path class="d" d="M230.5,73.5H218.2v8.1h14.6v7.5H209V51.4h23.8V59H218.2v6.8h12.3Z"/><path class="d" d="M237,89.1V51.4h12.8c4.4,0,7.8.9,10.1,2.7a9.283,9.283,0,0,1,3.5,7.7,9.1,9.1,0,0,1-1.3,5,7.1,7.1,0,0,1-3.7,3.1,6.964,6.964,0,0,1,4.1,3,9.288,9.288,0,0,1,1.5,5.4c0,3.8-1.1,6.5-3.3,8.2s-5.5,2.6-9.8,2.6Zm9.2-22h4.4c2.4-.1,3.7-1.4,3.7-3.9a4.705,4.705,0,0,0-.9-3.2,3.786,3.786,0,0,0-2.8-1h-4.4Zm0,6.4v8.1h4.7a3.5,3.5,0,0,0,3.9-3.9q0-4.05-3.3-4.2Z"/><path class="d" d="M302.2,73.4c-.2,5.4-1.7,9.4-4.5,12.2s-6.7,4.1-11.8,4.1c-5.3,0-9.4-1.8-12.2-5.3s-4.3-8.5-4.3-15V61.5c0-6.5,1.5-11.5,4.4-15s7-5.3,12.2-5.3c5.1,0,9,1.4,11.7,4.3s4.2,7,4.5,12.4h-9.5q-.15-4.95-1.5-6.9c-.9-1.3-2.7-1.9-5.2-1.9a5.839,5.839,0,0,0-5.4,2.7c-1.1,1.8-1.6,4.7-1.7,8.8v8.9c0,4.7.5,7.9,1.6,9.6,1,1.7,2.8,2.6,5.4,2.6,2.5,0,4.2-.6,5.2-1.8.9-1.2,1.5-3.4,1.6-6.6h9.5Z"/><path class="d" d="M336.6,71a23.484,23.484,0,0,1-1.9,9.8,14.969,14.969,0,0,1-5.3,6.5,14.717,14.717,0,0,1-15.8,0,15.163,15.163,0,0,1-5.4-6.5,23.167,23.167,0,0,1-1.9-9.8V69.5a23.167,23.167,0,0,1,1.9-9.8,14.5,14.5,0,0,1,5.4-6.5,14.1,14.1,0,0,1,7.9-2.3,13.666,13.666,0,0,1,10.6,4.7q4.2,4.65,4.5,12.6Zm-9.1-1.5c0-3.6-.5-6.3-1.6-8.2s-2.5-2.9-4.4-2.9a4.968,4.968,0,0,0-4.5,2.9c-1,1.9-1.5,4.6-1.5,8.2V71c0,3.6.5,6.3,1.6,8.2s2.5,2.9,4.4,2.9a4.8,4.8,0,0,0,4.3-2.9,17.411,17.411,0,0,0,1.6-8V69.5Z"/><path class="d" d="M370.7,89.1h-9.2L350.9,65.7V89.1h-9.2V51.4h9.2l10.6,23.4V51.4h9.2Z"/><path class="d" d="M398.3,74.5H385.8V89.1h-9.2V51.4h22.9V59H385.7v7.8h12.5v7.7Z"/><path class="c" d="M168.9,30a5.4,5.4,0,0,1-1.6,3.9,5.941,5.941,0,0,1-4.1,1.3,5.494,5.494,0,0,1-4.3-1.7,6.9,6.9,0,0,1-1.5-4.8V26.2a6.9,6.9,0,0,1,1.5-4.8,6.481,6.481,0,0,1,8.4-.3,5.839,5.839,0,0,1,1.6,3.9h-3.3a3.722,3.722,0,0,0-.5-2.2,2.157,2.157,0,0,0-1.8-.6,2.082,2.082,0,0,0-1.9.9,5.063,5.063,0,0,0-.6,2.8v2.8a5.792,5.792,0,0,0,.6,3.1,2.025,2.025,0,0,0,1.9.8,2.157,2.157,0,0,0,1.8-.6,4.38,4.38,0,0,0,.6-2.1h3.2Z"/><path class="c" d="M182,28.8a6.389,6.389,0,0,1-1.6,4.7,5.72,5.72,0,0,1-4.4,1.7,5.873,5.873,0,0,1-4.4-1.7,6.144,6.144,0,0,1-1.6-4.6V26.3a6.485,6.485,0,0,1,1.6-4.8,5.521,5.521,0,0,1,4.4-1.7,5.643,5.643,0,0,1,4.3,1.7,6.485,6.485,0,0,1,1.6,4.8v2.5Zm-3.4-2.5a5.621,5.621,0,0,0-.6-3,2.117,2.117,0,0,0-2-1,2.221,2.221,0,0,0-2,1,6.444,6.444,0,0,0-.7,2.9v2.7a5.456,5.456,0,0,0,.6,2.9,2.263,2.263,0,0,0,2,.9,2.082,2.082,0,0,0,1.9-.9,5.3,5.3,0,0,0,.6-2.8V26.3Zm-1.9-10.4h3.6l-3.2,3.2h-2.7Z"/><path class="c" d="M188.8,29.5h-1.7V35h-3.3V20h5.3a5.689,5.689,0,0,1,3.9,1.2,4.293,4.293,0,0,1,1.4,3.4,4.3,4.3,0,0,1-2.4,4.2l2.9,6.1V35h-3.6ZM187.1,27H189a1.755,1.755,0,0,0,1.5-.6,2.544,2.544,0,0,0,.5-1.6c0-1.5-.6-2.3-1.9-2.3h-2Z"/><path class="c" d="M196.1,35V20h4.4a6.351,6.351,0,0,1,4.6,1.7,6.664,6.664,0,0,1,1.8,4.6v2.4a6.19,6.19,0,0,1-1.7,4.6,6.434,6.434,0,0,1-4.7,1.7Zm3.3-12.5v10h1a2.887,2.887,0,0,0,2.3-.8,4.105,4.105,0,0,0,.7-2.8V26.3a5,5,0,0,0-.6-2.9,2.826,2.826,0,0,0-2.2-.9h-1.2Z"/><path class="c" d="M220.2,28.8a6.389,6.389,0,0,1-1.6,4.7,5.72,5.72,0,0,1-4.4,1.7,5.873,5.873,0,0,1-4.4-1.7,6.144,6.144,0,0,1-1.6-4.6V26.3a6.485,6.485,0,0,1,1.6-4.8,5.521,5.521,0,0,1,4.4-1.7,5.643,5.643,0,0,1,4.3,1.7,6.485,6.485,0,0,1,1.6,4.8v2.5Zm-3.3-2.5a5.621,5.621,0,0,0-.6-3,2.117,2.117,0,0,0-2-1,2.221,2.221,0,0,0-2,1,6.444,6.444,0,0,0-.7,2.9v2.7a5.456,5.456,0,0,0,.6,2.9,2.263,2.263,0,0,0,2,.9,2.082,2.082,0,0,0,1.9-.9,5.3,5.3,0,0,0,.6-2.8V26.3Z"/><path class="c" d="M222.1,35V20h5.1a6.254,6.254,0,0,1,3.9,1,3.615,3.615,0,0,1,1.3,3.1,3.379,3.379,0,0,1-.6,2,3.491,3.491,0,0,1-1.5,1.2,2.981,2.981,0,0,1,1.7,1.2,3.7,3.7,0,0,1,.6,2.1,3.9,3.9,0,0,1-1.3,3.3,6.132,6.132,0,0,1-3.8,1.1Zm3.3-8.8h1.7c1.3,0,2-.6,2-1.8a2.07,2.07,0,0,0-.5-1.5,2.076,2.076,0,0,0-1.5-.4h-1.8v3.7Zm0,2.2v4h2.1a1.736,1.736,0,0,0,1.9-1.9c0-1.3-.5-2-1.6-2.1h-2.4Z"/><path class="c" d="M242.4,31.9h-4.5L237,35h-3.5l5.2-15h3.1L247,35h-3.6Zm-3.8-2.5h3.1L240.2,24Z"/><path class="e" d="M322.5,102.1l-1-1.7-5.1,8.8,5.1,8.9,5.1-8.9Z"/></svg>