<svg xmlns="http://www.w3.org/2000/svg" viewBox="0 0 311.05 405.38"><defs><style>.cls-1{fill:#3b477f;}.cls-2{fill:#a70050;}.cls-3{fill:#a71d53;}.cls-4{fill:#fff;}.cls-5{font-size:41.07px;font-family:RobotoCondensed-Bold, Roboto Condensed;font-weight:700;letter-spacing:-0.02em;}.cls-5,.cls-6{fill:#c3c4c6;}</style></defs><g id="Layer_2" data-name="Layer 2"><g id="Layer_1-2" data-name="Layer 1"><polygon class="cls-1" points="163.99 231.94 269.03 138.94 240.71 0 173.99 59.08 218.89 136.85 163.99 231.94"/><polygon class="cls-1" points="145.45 231.94 40.4 138.94 68.73 0 135.45 59.08 90.55 136.85 145.45 231.94"/><polygon class="cls-2" points="163.83 73.85 154.82 58.23 108.06 139.23 154.89 220.15 201.58 139.23 163.83 73.85"/><path class="cls-3" d="M105.46,371.68,91.87,359l-80.72.19A9,9,0,0,1,2.4,348.11H2L.26,351.85h0A9,9,0,0,0,9,363l80.72-.19,13.59,12.66a8.8,8.8,0,0,1,.86,7A8.94,8.94,0,0,0,105.46,371.68Z"/><path class="cls-3" d="M310.79,351.85,309,348.12h-.4a9,9,0,0,1-8.74,11.11L219.18,359l-13.6,12.65a8.94,8.94,0,0,0,1.28,10.71,8.84,8.84,0,0,1,.87-7l13.59-12.66L302,363a9,9,0,0,0,8.75-11.1Z"/><path class="cls-4" d="M43.1,323.21l5.66-37.54H60.7L50.07,345.4H38l-7-35.2-6.89,35.2H12L1.3,285.67h12l5.62,37.49,7-37.49H36.09Z"/><path class="cls-4" d="M93.4,325.54H77.81v10.3H96.35v9.56H66.2V297.61H96.39v9.68H77.81v8.61H93.4Z"/><path class="cls-4" d="M101.72,345.4V297.61H118q8.37,0,12.78,3.38t4.41,9.83a12.2,12.2,0,0,1-1.6,6.35,9.38,9.38,0,0,1-4.72,4,9.13,9.13,0,0,1,5.21,3.76,12,12,0,0,1,1.85,6.79q0,7.14-4.15,10.42t-12.47,3.28Zm11.61-27.94h5.58q4.64-.12,4.64-4.92a5.75,5.75,0,0,0-1.15-4,4.65,4.65,0,0,0-3.53-1.21h-5.54Zm0,8.08v10.3h6a5,5,0,0,0,3.72-1.32,4.93,4.93,0,0,0,1.29-3.62q0-5.19-4.19-5.36Z"/><path class="cls-4" d="M184.39,325.5q-.45,10.22-5.75,15.47t-14.93,5.25q-10.14,0-15.53-6.67t-5.39-19V310.49q0-12.32,5.58-19t15.51-6.66q9.75,0,14.83,5.45T184.47,306h-12.1c-.11-4.22-.76-7.12-2-8.72s-3.37-2.4-6.54-2.4-5.52,1.13-6.86,3.38-2.05,6-2.13,11.14v11.28q0,8.91,2,12.23c1.33,2.21,3.6,3.32,6.83,3.32s5.36-.77,6.57-2.32,1.88-4.34,2.05-8.39Z"/><path class="cls-4" d="M228.08,322.47a30.17,30.17,0,0,1-2.38,12.37,18.91,18.91,0,0,1-6.77,8.28,17.51,17.51,0,0,1-10,2.94,17.94,17.94,0,0,1-10-2.87,18.85,18.85,0,0,1-6.85-8.29,29.94,29.94,0,0,1-2.44-12.43v-1.85a30.39,30.39,0,0,1,2.4-12.45,18.83,18.83,0,0,1,6.79-8.31,17.7,17.7,0,0,1,10-2.91,17.13,17.13,0,0,1,13.46,6q5.25,6,5.7,15.94Zm-11.61-1.93q0-6.77-2-10.4c-1.33-2.42-3.19-3.63-5.6-3.63a6.1,6.1,0,0,0-5.66,3.63q-1.93,3.63-1.93,10.4v1.89q0,6.81,2,10.44T209,336.5c2.33,0,4.15-1.23,5.48-3.67s2-5.85,2-10.2Z"/><path class="cls-4" d="M271.28,345.4H259.67l-13.46-29.66V345.4H234.6V297.61h11.61l13.46,29.7v-29.7h11.61Z"/><path class="cls-4" d="M306.31,326.82H290.43V345.4H278.82V297.61h29.09v9.68H290.43v9.88h15.88Z"/><text class="cls-5" transform="translate(112.16 394.25) scale(1.1 1)">2021</text><path class="cls-6" d="M94.68,265.32Q94.43,271,91.47,274c-2,2-4.76,2.94-8.34,2.94q-5.67,0-8.68-3.73t-3-10.62v-5.62q0-6.87,3.12-10.6a10.71,10.71,0,0,1,8.67-3.73q5.44,0,8.28,3.05c1.89,2,3,4.95,3.23,8.76H88c-.06-2.35-.42-4-1.09-4.87S85,248.2,83.22,248.2a4.09,4.09,0,0,0-3.83,1.89q-1.12,1.89-1.19,6.22v6.31c0,3.32.37,5.59,1.11,6.83a4.07,4.07,0,0,0,3.82,1.85q2.66,0,3.66-1.29c.67-.86,1.06-2.42,1.15-4.69Z"/><path class="cls-6" d="M119.09,263.63a16.84,16.84,0,0,1-1.33,6.91,10.49,10.49,0,0,1-3.78,4.63,9.8,9.8,0,0,1-5.57,1.64,10,10,0,0,1-5.58-1.61A10.51,10.51,0,0,1,99,270.57a16.69,16.69,0,0,1-1.36-6.94v-1A16.87,16.87,0,0,1,99,255.64a10.59,10.59,0,0,1,3.79-4.65,9.94,9.94,0,0,1,5.6-1.62,9.59,9.59,0,0,1,7.52,3.33,14.08,14.08,0,0,1,3.18,8.91Zm-6.48-1.08a12.17,12.17,0,0,0-1.12-5.81,3.45,3.45,0,0,0-6.29,0,12.6,12.6,0,0,0-1.08,5.81v1.05a12.11,12.11,0,0,0,1.14,5.84,3.5,3.5,0,0,0,3.15,2,3.4,3.4,0,0,0,3.06-2.05,12.33,12.33,0,0,0,1.14-5.7Zm-3-22h7.29l-6.37,7.11h-5.42Z"/><path class="cls-6" d="M131.57,267.25h-2.32v9.19h-6.51v-26.7h9.67a10.27,10.27,0,0,1,6.87,2.08,7.37,7.37,0,0,1,2.44,5.94,10.14,10.14,0,0,1-.94,4.64,7.33,7.33,0,0,1-3.12,3l4.88,10.73v.27h-7Zm-2.32-5.39h3.05q2.92,0,2.93-3.37c0-2.22-.93-3.33-2.79-3.35h-3.19Z"/><path class="cls-6" d="M145.66,276.44v-26.7h7.84a10.84,10.84,0,0,1,5.87,1.62,11,11,0,0,1,4,4.58,14.62,14.62,0,0,1,1.46,6.63v1.06a13.56,13.56,0,0,1-3.13,9.18,10.44,10.44,0,0,1-8.33,3.63Zm6.49-21.3v16h1.42a4.15,4.15,0,0,0,3.66-1.61q1.11-1.61,1.15-5.46v-1.47q0-4-1.11-5.72a4.13,4.13,0,0,0-3.65-1.7Z"/><path class="cls-6" d="M189.33,263.63a16.84,16.84,0,0,1-1.33,6.91,10.49,10.49,0,0,1-3.78,4.63,9.8,9.8,0,0,1-5.57,1.64,10,10,0,0,1-5.58-1.61,10.51,10.51,0,0,1-3.83-4.63,16.69,16.69,0,0,1-1.36-6.94v-1a17,17,0,0,1,1.33-6.95A10.68,10.68,0,0,1,173,251a9.9,9.9,0,0,1,5.59-1.62,9.56,9.56,0,0,1,7.52,3.33,14,14,0,0,1,3.19,8.91Zm-6.48-1.08a12.17,12.17,0,0,0-1.12-5.81,3.45,3.45,0,0,0-6.29,0,12.6,12.6,0,0,0-1.08,5.81v1.05a12.11,12.11,0,0,0,1.14,5.84,3.47,3.47,0,0,0,3.15,2,3.4,3.4,0,0,0,3.06-2.05,12.33,12.33,0,0,0,1.14-5.7Z"/><path class="cls-6" d="M193,276.44v-26.7h9.08c3.12,0,5.49.62,7.13,1.89a6.48,6.48,0,0,1,2.47,5.49,6.9,6.9,0,0,1-.89,3.55,5.27,5.27,0,0,1-2.64,2.22A5.14,5.14,0,0,1,211,265a6.67,6.67,0,0,1,1,3.79c0,2.66-.77,4.61-2.31,5.83s-3.87,1.83-7,1.83Zm6.49-15.61h3.11c1.73,0,2.6-1,2.6-2.75a3.21,3.21,0,0,0-.65-2.26,2.6,2.6,0,0,0-2-.68h-3.09Zm0,4.52v5.75h3.32a2.54,2.54,0,0,0,2.79-2.76c0-1.93-.77-2.93-2.33-3Z"/><path class="cls-6" d="M230,271.38h-7.89l-1.44,5.06h-6.49l8.83-26.7h6.07l8.92,26.7h-6.51Zm-6.46-4.89h5L226,257.87Z"/></g></g></svg>