<svg xmlns="http://www.w3.org/2000/svg" width="311.121" height="394.9" viewBox="0 0 311.121 394.9"><defs><style>.a{isolation:isolate;}.b{fill:#3c467e;}.c{fill:#a70050;}.d{fill:#fff;}.e{fill:#c2c4c7;}</style></defs><g class="a" transform="translate(0.075)"><path class="b" d="M164.2,232.1l105.1-92.9L241.2.2l-66.8,59,44.8,77.9Z"/><path class="b" d="M145.6,232,40.7,138.9,69.2,0l66.6,59.2-45,77.7Z"/><path class="c" d="M164.2,74l-9-15.7-46.9,81,46.8,81,46.8-80.9Z"/><path class="c" d="M105.4,371.7,91.8,359l-80.7.1A8.957,8.957,0,0,1,2.4,348H2L.2,351.7h0a8.957,8.957,0,0,0,8.7,11.1l80.7-.1,13.6,12.7a9.211,9.211,0,0,1,.9,7A8.838,8.838,0,0,0,105.4,371.7Z"/><path class="c" d="M310.8,352.2l-1.7-3.7h-.4a9.021,9.021,0,0,1-8.8,11.1l-80.7-.3-13.6,12.6a8.838,8.838,0,0,0,1.3,10.7,9.211,9.211,0,0,1,.9-7L221.4,363l80.7.3a9.005,9.005,0,0,0,8.7-11.1Z"/><path class="d" d="M43.8,323.2l5.7-37.5H61.4L50.7,345.4H38.6l-6.9-35.2-6.9,35.2H12.7L2,285.6H14l5.6,37.5,7.1-37.5H36.8Z"/><path class="d" d="M94.1,325.6H78.5v10.3H97v9.6H66.8l.1-47.8H97.1v9.7H78.5V316H94.1Z"/><path class="d" d="M102.4,345.4l.1-47.8h16.2c5.6,0,9.8,1.1,12.8,3.4,2.9,2.3,4.4,5.5,4.4,9.8a12.175,12.175,0,0,1-1.6,6.4,9.767,9.767,0,0,1-4.7,4,9.161,9.161,0,0,1,5.2,3.8,12.083,12.083,0,0,1,1.8,6.8c0,4.8-1.4,8.2-4.2,10.4s-6.9,3.3-12.5,3.3ZM114,317.5h5.6c3.1-.1,4.6-1.7,4.6-4.9a5.977,5.977,0,0,0-1.1-4,4.639,4.639,0,0,0-3.5-1.2h-5.5Zm0,8.1v10.3h5.9a4.778,4.778,0,0,0,3.7-1.3,4.835,4.835,0,0,0,1.3-3.6c0-3.5-1.4-5.2-4.2-5.4Z"/><path class="d" d="M185.1,325.7c-.3,6.8-2.2,12-5.8,15.5-3.5,3.5-8.5,5.2-14.9,5.2-6.8,0-11.9-2.2-15.5-6.7-3.6-4.4-5.4-10.8-5.4-19v-10c0-8.2,1.9-14.5,5.6-19,3.7-4.4,8.9-6.7,15.5-6.6,6.5,0,11.4,1.8,14.8,5.5,3.4,3.6,5.3,8.9,5.7,15.7H173c-.1-4.2-.7-7.1-1.9-8.7s-3.4-2.4-6.5-2.4c-3.2,0-5.5,1.1-6.9,3.4-1.3,2.3-2.1,6-2.1,11.1V321c0,5.9.7,10,2,12.2s3.6,3.3,6.8,3.3,5.4-.8,6.6-2.3,1.9-4.3,2.1-8.4Z"/><path class="d" d="M228.8,322.7a30.147,30.147,0,0,1-2.4,12.4,19.365,19.365,0,0,1-6.8,8.3,17.256,17.256,0,0,1-10,2.9,18.268,18.268,0,0,1-10-2.9,18.794,18.794,0,0,1-6.8-8.3,30.479,30.479,0,0,1-2.4-12.4v-1.8a29.819,29.819,0,0,1,2.4-12.4,18.794,18.794,0,0,1,6.8-8.3,18.027,18.027,0,0,1,10-2.9,16.778,16.778,0,0,1,13.4,6q5.25,6,5.7,15.9Zm-11.7-2c0-4.5-.7-8-2-10.4a6.234,6.234,0,0,0-11.3,0c-1.3,2.4-1.9,5.9-1.9,10.4v1.9c0,4.5.7,8,2,10.4a6.134,6.134,0,0,0,5.6,3.6c2.3,0,4.2-1.2,5.5-3.7,1.3-2.4,2-5.8,2-10.2Z"/><path class="d" d="M271.9,345.7H260.3L246.9,316v29.7H235.3l.1-47.8H247l13.4,29.7V297.9H272Z"/><path class="d" d="M307,327.1H291.1v18.6H279.5l.1-47.8h29.1v9.7H291.2v9.9h15.9Z"/><path class="e" d="M132.5,394.3H113.6v-4l8.7-10a18.942,18.942,0,0,0,2.4-3.7,7.091,7.091,0,0,0,.8-3,5.129,5.129,0,0,0-.7-3,2.476,2.476,0,0,0-2.1-1.1,2.712,2.712,0,0,0-2.4,1.3,6.4,6.4,0,0,0-.9,3.6h-6.3a10.156,10.156,0,0,1,1.2-4.9,9.513,9.513,0,0,1,3.4-3.5,10.551,10.551,0,0,1,5-1.2c2.9,0,5.1.7,6.7,2.2a7.765,7.765,0,0,1,2.4,6.1,10.654,10.654,0,0,1-1.3,5,29.786,29.786,0,0,1-4.8,6.2l-4.1,5.3h10.9Z"/><path class="e" d="M153.9,382.3q0,6-2.4,9.3a8.189,8.189,0,0,1-6.9,3.2,7.928,7.928,0,0,1-6.8-3.1c-1.6-2.1-2.4-5.1-2.5-8.9v-5.5c0-4,.8-7.1,2.4-9.2a9.039,9.039,0,0,1,13.8,0q2.4,3.15,2.4,9Zm-6.2-5.9a14.108,14.108,0,0,0-.7-5.2,2.385,2.385,0,0,0-2.3-1.7c-2,0-3,2.1-3.1,6.3v7.3a12.258,12.258,0,0,0,.8,5.3,2.5,2.5,0,0,0,4.7.1,12.1,12.1,0,0,0,.8-4.9Z"/><path class="e" d="M175.9,394.4H157v-4l8.7-10a18.942,18.942,0,0,0,2.4-3.7,7.091,7.091,0,0,0,.8-3,5.129,5.129,0,0,0-.7-3,2.476,2.476,0,0,0-2.1-1.1,2.712,2.712,0,0,0-2.4,1.3,6.4,6.4,0,0,0-.9,3.6h-6.3a10.156,10.156,0,0,1,1.2-4.9,9.513,9.513,0,0,1,3.4-3.5,10.551,10.551,0,0,1,5-1.2c2.9,0,5.1.7,6.7,2.2a7.765,7.765,0,0,1,2.4,6.1,10.654,10.654,0,0,1-1.3,5,29.786,29.786,0,0,1-4.8,6.2l-4.1,5.3h10.9Z"/><path class="e" d="M197.4,382.4q0,6-2.4,9.3a8.189,8.189,0,0,1-6.9,3.2,7.928,7.928,0,0,1-6.8-3.1c-1.6-2.1-2.4-5.1-2.5-8.9v-5.5c0-4,.8-7.1,2.4-9.2a9.039,9.039,0,0,1,13.8,0q2.4,3.15,2.4,9Zm-6.3-6a14.108,14.108,0,0,0-.7-5.2,2.385,2.385,0,0,0-2.3-1.7c-2,0-3,2.1-3.1,6.3v7.3a12.258,12.258,0,0,0,.8,5.3,2.5,2.5,0,0,0,4.7.1,12.1,12.1,0,0,0,.8-4.9Z"/><path class="e" d="M95.3,265.4c-.2,3.8-1.2,6.7-3.2,8.6-2,2-4.8,2.9-8.3,2.9a10.744,10.744,0,0,1-8.7-3.7c-2-2.5-3-6-3-10.6V257c0-4.6,1-8.1,3.1-10.6a10.714,10.714,0,0,1,8.7-3.7c3.6,0,6.4,1,8.3,3.1,1.9,2,3,5,3.2,8.8H88.6c-.1-2.4-.4-4-1.1-4.9s-1.9-1.3-3.7-1.3a3.931,3.931,0,0,0-3.8,1.9c-.8,1.3-1.2,3.3-1.2,6.2v6.3c0,3.3.4,5.6,1.1,6.8a4.117,4.117,0,0,0,3.8,1.9c1.8,0,3-.4,3.7-1.3s1.1-2.4,1.2-4.7Z"/><path class="e" d="M119.7,263.7a16.661,16.661,0,0,1-1.3,6.9,10.862,10.862,0,0,1-3.8,4.6,9.681,9.681,0,0,1-5.6,1.6,9.9,9.9,0,0,1-5.6-1.6,10.862,10.862,0,0,1-3.8-4.6,16.8,16.8,0,0,1-1.4-7v-1a19.387,19.387,0,0,1,1.3-7,10.29,10.29,0,0,1,3.8-4.6,9.681,9.681,0,0,1,5.6-1.6,9.428,9.428,0,0,1,7.5,3.3c2,2.2,3,5.2,3.2,8.9Zm-6.5-1.1a12.7,12.7,0,0,0-1.1-5.8,3.3,3.3,0,0,0-3.1-2,3.6,3.6,0,0,0-3.2,2,13,13,0,0,0-1.1,5.8v1.1a12.7,12.7,0,0,0,1.1,5.8,3.393,3.393,0,0,0,3.1,2,3.573,3.573,0,0,0,3.1-2,11.331,11.331,0,0,0,1.1-5.7Zm-2.9-22h7.3l-6.4,7.1h-5.4Z"/><path class="e" d="M132.2,267.3h-2.3v9.2h-6.5V249.8h9.7a10.527,10.527,0,0,1,6.9,2.1,7.471,7.471,0,0,1,2.4,5.9,10.179,10.179,0,0,1-.9,4.6,7.491,7.491,0,0,1-3.1,3l4.9,10.7v.3h-7Zm-2.3-5.4h3c2,0,2.9-1.1,2.9-3.4,0-2.2-.9-3.3-2.8-3.4h-3.2Z"/><path class="e" d="M146.3,276.5V249.8h7.8a10.9,10.9,0,0,1,5.9,1.6,10.592,10.592,0,0,1,4,4.6,14.491,14.491,0,0,1,1.4,6.6v1.1a14,14,0,0,1-3.1,9.2,10.54,10.54,0,0,1-8.3,3.6Zm6.5-21.2v16h1.4a4.2,4.2,0,0,0,3.7-1.6c.7-1.1,1.1-2.9,1.2-5.5v-1.5c0-2.7-.4-4.6-1.1-5.7a4.143,4.143,0,0,0-3.7-1.7Z"/><path class="e" d="M190,263.8a16.661,16.661,0,0,1-1.3,6.9,10.862,10.862,0,0,1-3.8,4.6,9.681,9.681,0,0,1-5.6,1.6,9.9,9.9,0,0,1-5.6-1.6,10.862,10.862,0,0,1-3.8-4.6,16.8,16.8,0,0,1-1.4-7v-1a19.387,19.387,0,0,1,1.3-7,10.29,10.29,0,0,1,3.8-4.6,9.681,9.681,0,0,1,5.6-1.6,9.428,9.428,0,0,1,7.5,3.3c2,2.2,3,5.2,3.2,8.9Zm-6.5-1.1a12.7,12.7,0,0,0-1.1-5.8,3.461,3.461,0,0,0-3.1-2,3.6,3.6,0,0,0-3.2,2,13,13,0,0,0-1.1,5.8v1.1a12.7,12.7,0,0,0,1.1,5.8,3.393,3.393,0,0,0,3.1,2,3.573,3.573,0,0,0,3.1-2,12.826,12.826,0,0,0,1.1-5.7Z"/><path class="e" d="M193.6,276.6V249.9h9.1c3.1,0,5.5.6,7.1,1.9a6.712,6.712,0,0,1,2.5,5.5,7.126,7.126,0,0,1-.9,3.6,5.1,5.1,0,0,1-2.6,2.2,5.253,5.253,0,0,1,2.9,2.1,6.53,6.53,0,0,1,1,3.8c0,2.7-.8,4.6-2.3,5.8s-3.9,1.8-7,1.8Zm6.5-15.6h3.1a2.4,2.4,0,0,0,2.6-2.7,3.523,3.523,0,0,0-.6-2.3,2.444,2.444,0,0,0-2-.7h-3.1Zm0,4.5v5.8h3.3a2.817,2.817,0,0,0,2.1-.7,2.724,2.724,0,0,0,.7-2c0-1.9-.8-2.9-2.3-3Z"/><path class="e" d="M230.6,271.6h-7.9l-1.5,5.1h-6.5l8.9-26.7h6.1l8.9,26.7h-6.5Zm-6.4-4.9h5l-2.5-8.6Z"/></g></svg>