<svg xmlns="http://www.w3.org/2000/svg" width="160" height="160" viewBox="0 0 160 160"><defs><style>.a{fill:#e6e6e6;}.b{fill:#b3b3b3;}.c{fill:#e86c60;}.d{fill:#efd358;}.e{fill:#c19a3a;}</style></defs><g transform="translate(-1 -1)"><path class="a" d="M110.348,1H6A17.393,17.393,0,0,1,23.391,18.391V143.609A17.393,17.393,0,0,0,40.783,161h86.957V18.391A17.393,17.393,0,0,0,110.348,1Z" transform="translate(12.391)"/><path class="b" d="M76.13,16.957H20.478a3.478,3.478,0,1,1,0-6.957H76.13a3.478,3.478,0,0,1,0,6.957Z" transform="translate(39.652 22.304)"/><path class="b" d="M76.13,24.957H20.478a3.478,3.478,0,0,1,0-6.957H76.13a3.478,3.478,0,0,1,0,6.957Z" transform="translate(39.652 42.13)"/><path class="b" d="M76.13,32.957H20.478a3.478,3.478,0,0,1,0-6.957H76.13a3.478,3.478,0,0,1,0,6.957Z" transform="translate(39.652 61.957)"/><path class="b" d="M44.826,40.957H20.478a3.478,3.478,0,1,1,0-6.957H44.826a3.478,3.478,0,0,1,0,6.957Z" transform="translate(39.652 81.783)"/><path class="b" d="M18.391,1A17.393,17.393,0,0,0,1,18.391H35.783A17.393,17.393,0,0,0,18.391,1Z"/><path class="b" d="M33.391,42A17.393,17.393,0,0,1,16,59.391h90.435A17.393,17.393,0,0,0,123.826,42Z" transform="translate(37.174 101.609)"/><path class="c" d="M60.826,23H33V68.217l13.913-6.957,13.913,6.957Z" transform="translate(79.304 54.522)"/><path class="d" d="M59.3,69.609a31.3,31.3,0,1,1,31.3-31.3A31.343,31.343,0,0,1,59.3,69.609Z" transform="translate(66.913 14.87)"/><path class="e" d="M54.348,9A24.348,24.348,0,1,0,78.7,33.348,24.375,24.375,0,0,0,54.348,9Zm0,41.739A17.391,17.391,0,1,1,71.739,33.348,17.411,17.411,0,0,1,54.348,50.739Z" transform="translate(71.87 19.826)"/></g></svg>