<svg xmlns="http://www.w3.org/2000/svg" width="49" height="49" viewBox="0 0 49 49"><defs><style>.a{fill:#fff;}</style></defs><path class="a" d="M25.4,5.392c6.507,0,7.286.024,9.86.142A10.453,10.453,0,0,1,42.6,8.2a10.453,10.453,0,0,1,2.666,7.337c.117,2.578.146,3.358.146,9.864s-.024,7.286-.142,9.86A10.453,10.453,0,0,1,42.6,42.6a10.452,10.452,0,0,1-7.337,2.666c-2.573.117-3.345.142-9.86.142s-7.286-.024-9.86-.142A10.453,10.453,0,0,1,8.21,42.6,10.452,10.452,0,0,1,5.543,35.26c-.122-2.573-.151-3.345-.151-9.86s.024-7.286.142-9.86A10.453,10.453,0,0,1,8.2,8.2a10.453,10.453,0,0,1,7.341-2.666c2.573-.117,3.353-.146,9.86-.146M25.4,1c-6.626,0-7.457.028-10.061.146A14.6,14.6,0,0,0,5.091,5.094,14.593,14.593,0,0,0,1.143,15.343C1.028,17.944,1,18.775,1,25.4s.028,7.457.146,10.061A14.6,14.6,0,0,0,5.094,45.711a14.593,14.593,0,0,0,10.248,3.948c2.6.119,3.436.146,10.061.146s7.457-.028,10.061-.146a14.6,14.6,0,0,0,10.248-3.948,14.593,14.593,0,0,0,3.948-10.248c.119-2.6.146-3.436.146-10.061s-.028-7.457-.146-10.061A14.6,14.6,0,0,0,45.714,5.091,14.593,14.593,0,0,0,35.466,1.143C32.858,1.028,32.027,1,25.4,1Z" transform="translate(-1 -1)"/><path class="a" d="M22.3,8.3a14,14,0,1,0,14,14A14,14,0,0,0,22.3,8.3Zm0,23.084A9.088,9.088,0,1,1,31.384,22.3,9.088,9.088,0,0,1,22.3,31.384Z" transform="translate(2.105 2.105)"/><ellipse class="a" cx="2.566" cy="2.566" rx="2.566" ry="2.566" transform="translate(35.08 8.59)"/></svg>