<svg xmlns="http://www.w3.org/2000/svg" width="60.256" height="48.805" viewBox="0 0 60.256 48.805"><defs><style>.a{fill:#fff;}</style></defs><path class="a" d="M60.156,8.819A22.218,22.218,0,0,1,53.023,10.7a12.13,12.13,0,0,0,5.444-6.758,23.663,23.663,0,0,1-7.884,3A12.086,12.086,0,0,0,41.76,3,12.377,12.377,0,0,0,29.371,15.389a14.49,14.49,0,0,0,.375,2.816A35.387,35.387,0,0,1,4.217,5.253a11.815,11.815,0,0,0-1.689,6.194A12.7,12.7,0,0,0,7.972,21.771a11.467,11.467,0,0,1-5.631-1.5v.188a12.282,12.282,0,0,0,9.949,12.014,18.494,18.494,0,0,1-3.191.375,9.139,9.139,0,0,1-2.253-.188A12.538,12.538,0,0,0,18.3,41.293,24.246,24.246,0,0,1,2.9,46.549a16.147,16.147,0,0,1-3-.188,37.264,37.264,0,0,0,19.147,5.444c22.713,0,35.1-18.771,35.1-35.1V15.2A32.314,32.314,0,0,0,60.156,8.819Z" transform="translate(0.1 -3)"/></svg>