<svg xmlns="http://www.w3.org/2000/svg" width="160" height="160" viewBox="0 0 160 160"><defs><style>.a{fill:#c19f85;}.b{fill:#e6e6e6;}.c{fill:#e86c60;}.d{fill:#87613e;}</style></defs><g transform="translate(0 -1)"><path class="a" d="M85.377,30.857a3.4,3.4,0,0,0-2.236-2.447l-18.81-6.27L58.06,3.327A3.4,3.4,0,0,0,52.423,2L32,22.422a3.4,3.4,0,0,0-.823,3.484l6.809,20.426a3.654,3.654,0,0,0,2.153,2.151l20.426,6.809a3.354,3.354,0,0,0,1.077.176,3.406,3.406,0,0,0,2.407-1L84.471,34.045A3.4,3.4,0,0,0,85.377,30.857Z" transform="translate(74.532 0)"/><ellipse class="b" cx="54.486" cy="54.487" rx="54.486" ry="54.487" transform="translate(9.907 41.527)"/><path class="c" d="M64.681,139.362a64.681,64.681,0,1,1,64.681-64.681A64.755,64.755,0,0,1,64.681,139.362Zm0-115.745a51.064,51.064,0,1,0,51.064,51.064A51.121,51.121,0,0,0,64.681,23.617Z" transform="translate(0 21.638)"/><path class="c" d="M47.851,98.7A40.851,40.851,0,1,1,88.7,57.851,40.9,40.9,0,0,1,47.851,98.7Zm0-68.085A27.234,27.234,0,1,0,75.085,57.851,27.265,27.265,0,0,0,47.851,30.617Z" transform="translate(16.83 38.468)"/><ellipse class="c" cx="13.509" cy="13.509" rx="13.509" ry="13.509" transform="translate(51.334 82.955)"/><path class="d" d="M21.4,94.915A3.4,3.4,0,0,1,19,89.1L104.1,4a3.4,3.4,0,1,1,4.814,4.814L23.811,93.918A3.394,3.394,0,0,1,21.4,94.915Z" transform="translate(43.277 4.808)"/></g></svg>