<svg xmlns="http://www.w3.org/2000/svg" width="160" height="160" viewBox="0 0 160 160"><defs><style>.a{fill:#7f7f7f;}.b{fill:#e6e6e6;}.c{fill:#b3b3b3;}</style></defs><g transform="translate(-3 -3)"><path class="a" d="M13.02,93.573c-.77,0,15.413-65.9,15.413-65.9a3.808,3.808,0,0,1,6.328-1.559L61.427,52.784a3.81,3.81,0,0,1-.409,5.74L15.3,92.81A3.784,3.784,0,0,1,13.02,93.573Z" transform="translate(28.076 61.808)"/><path class="b" d="M128.684,163a3.8,3.8,0,0,1-2.284-.763L4.525,70.808A3.809,3.809,0,0,1,5.4,64.223L157.776,3.271a3.81,3.81,0,0,1,5.149,4.286l-30.506,152.38A3.805,3.805,0,0,1,128.684,163Z" transform="translate(0 0.001)"/><path class="c" d="M15.813,155.381A3.8,3.8,0,0,1,12,151.571V94.429a3.811,3.811,0,0,1,1.54-3.058L131.635,3.752a3.809,3.809,0,0,1,4.911,5.8L31.8,110.241,19.422,152.776A3.807,3.807,0,0,1,15.813,155.381Z" transform="translate(25.286)"/></g></svg>