<svg xmlns="http://www.w3.org/2000/svg" width="140" height="140" viewBox="0 0 140 140"><defs><style>.a{fill:#9bced3;}.b{fill:#76b5b5;}.b,.d{fill-rule:evenodd;}.c{fill:#5a7a84;}.d{fill:#335262;}</style></defs><g transform="translate(-1 -1)"><circle class="a" cx="14.998" cy="14.998" r="14.998" transform="translate(101.371 13.691)"/><circle class="a" cx="14.998" cy="14.998" r="14.998" transform="translate(10.23 13.691)"/><path class="b" d="M46.207,17A15.2,15.2,0,0,0,31,32.229V52.9a4.867,4.867,0,0,0,2.839,4.192l6.292,2.517L42.92,93.079a3.385,3.385,0,0,0,3.289,3.051H64.487a3.386,3.386,0,0,0,3.289-3.051l2.789-33.471,6.242-2.08a4.5,4.5,0,0,0,2.889-4V32.24A15.233,15.233,0,0,0,64.488,17Z" transform="translate(61.304 32.696)"/><path class="b" d="M16.207,17A15.2,15.2,0,0,0,1,32.229V52.9a4.867,4.867,0,0,0,2.839,4.192l6.292,2.517L12.92,93.079a3.385,3.385,0,0,0,3.289,3.051H34.487a3.386,3.386,0,0,0,3.289-3.051l2.789-33.471,6.241-2.08a4.5,4.5,0,0,0,2.889-4V32.24A15.233,15.233,0,0,0,34.488,17Z" transform="translate(0 32.696)"/><circle class="c" cx="18.459" cy="18.459" r="18.459" transform="translate(52.916 1)"/><path class="d" d="M32.263,15A18.248,18.248,0,0,0,14,33.271V60.649a5.374,5.374,0,0,0,2.7,4.4l9.472,4.736L29.23,109.6a3.038,3.038,0,0,0,3.031,2.791H56.609A3.038,3.038,0,0,0,59.64,109.6L62.5,69.162l9.56-4.226a5.079,5.079,0,0,0,2.806-4.287V33.271A18.247,18.247,0,0,0,56.607,15Z" transform="translate(26.565 28.609)"/></g></svg>