<svg xmlns="http://www.w3.org/2000/svg" width="120" height="120" viewBox="0 0 120 120"><defs><style>.a{fill:#b3b3b3;}.b{fill:#43a6dd;}</style></defs><g transform="translate(-2 -2)"><path class="a" d="M62,111.091a49.091,49.091,0,1,1,38.215-79.938L79.348,28.359,77.9,39.172l32.438,4.344a5.678,5.678,0,0,0,.731.048,5.455,5.455,0,0,0,5.4-4.73L120.812,6.4,110,4.948,107.582,23A59.991,59.991,0,1,0,122,62H111.091A49.147,49.147,0,0,1,62,111.091Z" transform="translate(0 0)"/><path class="b" d="M35.818,35.818H16.727A2.727,2.727,0,0,0,14,38.545V44a2.727,2.727,0,0,0,2.727,2.727H41.273a5.455,5.455,0,0,0,5.455-5.455V16.727A2.727,2.727,0,0,0,44,14H38.545a2.727,2.727,0,0,0-2.727,2.727Z" transform="translate(20.727 20.727)"/></g></svg>