<svg xmlns="http://www.w3.org/2000/svg" width="160" height="160" viewBox="0 0 160 160"><defs><style>.a{fill:#5a7a84;}.b{fill:#335262;}.c{fill:#e6e6e6;}.d{fill:#e86c60;}</style></defs><g transform="translate(-1066 -3072)"><g transform="translate(1092 3106)"><path class="a" d="M37.766,72.99a10.222,10.222,0,0,1-2.146-.229,10.012,10.012,0,0,1-6.43-4.514L11.337,39.68a2.22,2.22,0,0,1-.1-2.165l6.645-13.289a2.217,2.217,0,0,1,3.684-.428L32.635,37.086c.05.061.1.125.141.19L46.13,57.308A10.09,10.09,0,0,1,37.766,72.99Z" transform="translate(10.934 24.297)"/><path class="b" d="M50.727,52.868H21.934a19.934,19.934,0,1,1,0-39.868H50.727a2.214,2.214,0,0,1,2.215,2.215V50.653A2.214,2.214,0,0,1,50.727,52.868Z" transform="translate(0 12.149)"/><path class="c" d="M66.083,87.166a2.207,2.207,0,0,1-1.075-.279L24,65.017V25.149L65.008,3.28A2.214,2.214,0,0,1,68.3,5.215V84.951a2.214,2.214,0,0,1-2.215,2.215Z" transform="translate(26.727 0)"/><path class="d" d="M48.645,87.165h-4.43A2.214,2.214,0,0,1,42,84.95V5.215A2.214,2.214,0,0,1,44.215,3h4.43A2.214,2.214,0,0,1,50.86,5.215V84.95A2.214,2.214,0,0,1,48.645,87.165Z" transform="translate(48.595 0.001)"/></g><g transform="translate(1065 3071)"><path class="d" d="M81,1a80,80,0,1,0,80,80A80.091,80.091,0,0,0,81,1Zm0,6.957a72.671,72.671,0,0,1,49.049,19.076L27.032,130.049A72.919,72.919,0,0,1,81,7.957Zm0,146.087a72.671,72.671,0,0,1-49.049-19.076L134.968,31.951A72.919,72.919,0,0,1,81,154.043Z"/></g></g></svg>