<svg xmlns="http://www.w3.org/2000/svg" width="160" height="160" viewBox="0 0 160 160"><defs><style>.a{fill:#a67c52;}.b{fill:#87613e;}.c{fill:#efd358;}.d{fill:#e86c60;}</style></defs><g transform="translate(-240 -3072)"><g transform="translate(279.427 3104)"><path class="a" d="M73.8,68.343a.269.269,0,0,0-.011-.025L55.656,27.565,63.726,3.69A2.045,2.045,0,0,0,61.787,1H20.917a2.045,2.045,0,0,0-1.939,2.69l8.069,23.875L8.9,68.343A19.169,19.169,0,0,0,26.547,95h29.61A19.17,19.17,0,0,0,73.8,68.343Z" transform="translate(0 0)"/><path class="b" d="M25.043,23.348A2.044,2.044,0,0,1,23,21.3V9.043a2.043,2.043,0,1,1,4.087,0V21.3A2.044,2.044,0,0,1,25.043,23.348Z" transform="translate(16.309 6.261)"/><path class="c" d="M28.67,38.409c-3.705-.926-4.668-1.451-4.577-3.358a3.038,3.038,0,0,1,3.059-2.833H29.2a3.128,3.128,0,0,1,3.066,3.135,2.043,2.043,0,0,0,4.086-.069,7.142,7.142,0,0,0-6.13-7.049v-4.19A2.043,2.043,0,0,0,28.174,22h0a2.043,2.043,0,0,0-2.043,2.043v4.19A7.142,7.142,0,0,0,20,35.283c0,5.172,4.621,6.327,7.678,7.091,3.705.926,4.668,1.451,4.577,3.358A3.038,3.038,0,0,1,29.2,48.565H27.152a3.128,3.128,0,0,1-3.066-3.135A2.043,2.043,0,0,0,20,45.5a7.142,7.142,0,0,0,6.13,7.049v4.19a2.043,2.043,0,0,0,2.043,2.043h0a2.043,2.043,0,0,0,2.043-2.043v-4.19a7.142,7.142,0,0,0,6.13-7.049C36.348,40.328,31.727,39.173,28.67,38.409Z" transform="translate(13.178 21.913)"/><path class="c" d="M46.652,17.087H18.043a2.043,2.043,0,1,1,0-4.087H46.652a2.043,2.043,0,1,1,0,4.087Z" transform="translate(9.004 12.522)"/></g><g transform="translate(239 3071)"><path class="d" d="M81,1a80,80,0,1,0,80,80A80.091,80.091,0,0,0,81,1Zm0,6.957a72.671,72.671,0,0,1,49.049,19.076L27.032,130.049A72.919,72.919,0,0,1,81,7.957Zm0,146.087a72.671,72.671,0,0,1-49.049-19.076L134.968,31.951A72.919,72.919,0,0,1,81,154.043Z"/></g></g></svg>