<svg xmlns="http://www.w3.org/2000/svg" width="153.383" height="150" viewBox="0 0 153.383 150"><defs><style>.a{fill:#ffd764;}.b{fill:#e2ac4b;}.c{fill:#b3b3b3;}</style></defs><g transform="translate(-0.999 -1)"><path class="a" d="M116.637,15.892a9.717,9.717,0,0,0-8.487,11.459c.092.763,2.352,17.608,4.612,28.317l-47.3-47.3a8.521,8.521,0,0,0-12.638.654,8.862,8.862,0,0,0,.93,11.742L81.132,48.139a3.409,3.409,0,1,1-4.823,4.819L38.953,15.6a8.521,8.521,0,0,0-12.638.651A8.862,8.862,0,0,0,27.245,28L64.26,65.007a3.409,3.409,0,0,1-4.819,4.823L24.835,35.224a8.862,8.862,0,0,0-11.742-.93,8.521,8.521,0,0,0-.651,12.638L47.388,81.878a3.408,3.408,0,1,1-4.82,4.82L20.016,64.148a8.862,8.862,0,0,0-11.742-.927,8.521,8.521,0,0,0-.651,12.638l29.653,29.653,19.769,19.769a47.718,47.718,0,0,0,67.486,0l5.914-5.917A47.588,47.588,0,0,0,142,70.624c-4.993-14.919-12.083-31.739-15.481-47.019a9.653,9.653,0,0,0-9.884-7.713Z" transform="translate(9.942 11.741)"/><path class="b" d="M45.189,71a3.408,3.408,0,0,1-4.823,0c-13.293-13.293-12.205-35.993,2.41-50.611A3.411,3.411,0,1,1,47.6,25.216c-11.963,11.96-13.044,30.335-2.41,40.972A3.408,3.408,0,0,1,45.189,71Z" transform="translate(72.411 44.293)"/><path class="c" d="M59.084,24.859a3.408,3.408,0,0,1-2.924-1.653A34.009,34.009,0,0,0,28.408,7.817a3.408,3.408,0,0,1,0-6.817A40.925,40.925,0,0,1,62,19.7a3.408,3.408,0,0,1-2.921,5.164Z" transform="translate(57.804)"/><path class="c" d="M43.042,23.042a3.408,3.408,0,0,1-3.231-2.331,11.725,11.725,0,0,0-10.4-7.894,3.408,3.408,0,1,1,0-6.817c12.539,0,16.7,12.042,16.865,12.557a3.408,3.408,0,0,1-3.231,4.485Z" transform="translate(60.213 12.042)"/><path class="c" d="M31.679,65.085a3.381,3.381,0,0,1-.487-.034c-.262-.037-26.429-4.09-30.157-30.157a3.409,3.409,0,0,1,6.749-.968C10.775,54.887,31.3,58.176,32.169,58.3a3.408,3.408,0,0,1-.491,6.783Z" transform="translate(0 72.251)"/><path class="c" d="M22.041,50.454a3.409,3.409,0,0,1-1.077-.174A26.643,26.643,0,0,1,5.176,34.489a3.412,3.412,0,0,1,6.476-2.154A19.738,19.738,0,0,0,23.131,43.811a3.408,3.408,0,0,1-1.091,6.643Z" transform="translate(9.638 69.84)"/></g></svg>