<svg xmlns="http://www.w3.org/2000/svg" width="175.238" height="160" viewBox="0 0 175.238 160"><defs><style>.a{fill:#badefc;}.b{fill:#fff;}</style></defs><g transform="translate(-1 -3)"><path class="a" d="M168.619,3h-160A7.619,7.619,0,0,0,1,10.619V117.286A7.619,7.619,0,0,0,8.619,124.9H56.312l29.33,36.667a3.815,3.815,0,0,0,5.952,0l29.33-36.667h47.693a7.619,7.619,0,0,0,7.619-7.619V10.619A7.619,7.619,0,0,0,168.619,3Z" transform="translate(0 0)"/><path class="b" d="M93,21.619H16.81a3.81,3.81,0,0,1,0-7.619H93a3.81,3.81,0,0,1,0,7.619Z" transform="translate(33.714 30.905)"/><path class="b" d="M62.524,29.619H16.81a3.81,3.81,0,1,1,0-7.619H62.524a3.81,3.81,0,1,1,0,7.619Z" transform="translate(33.714 53.381)"/></g></svg>